<?xml version="1.0" encoding="UTF-8"?>
<svg xmlns="http://www.w3.org/2000/svg" viewBox="0 0 1086.4 1723.86">
  <defs>
    <style>
      .cls-1, .cls-2 {
        fill: #f1f2f2;
      }

      .cls-3 {
        fill: #808285;
      }

      .cls-2 {
        opacity: .33;
      }

      .cls-4 {
        fill: #a7a9ac;
      }
    </style>
  </defs>
  <g id="Layer_11" data-name="Layer 11">
    <path class="cls-4" d="M622.08,925.69c-168.38,0-307.78,124.11-331.68,285.84-42.95-11.59-83.23-29.67-119.73-53.16,28.55-126.1,108.57-232.67,216.83-296.44,68.11,40.12,147.38,63.29,232.04,63.74.85,0,1.69.02,2.54.02Z"/>
  </g>
  <g id="Layer_10" data-name="Layer 10">
    <path class="cls-4" d="M1084.92,1261.01c0,255.61-207.22,462.84-462.84,462.84s-462.84-207.23-462.84-462.84c0-6.7.14-13.34.42-19.97,39.3,24.97,82.72,44.04,129.01,55.97,17.97,168.27,160.4,299.31,333.42,299.31,185.19,0,335.33-150.12,335.33-335.31,0-105.55-48.76-199.7-124.99-261.18,14.37-43.74,22.25-90.43,22.49-138.92.59.34,1.17.67,1.75,1.01,136.6,80.47,228.27,229.07,228.27,399.09Z"/>
  </g>
  <g id="Layer_9" data-name="Layer 9">
    <path class="cls-3" d="M827.48,846.15c-4.96,44.56-16.76,87.04-34.34,126.39-50.08-29.77-108.57-46.85-171.06-46.85v-127.52h1.48c73.23.22,142.45,17.45,203.93,47.97Z"/>
  </g>
  <g id="Layer_8" data-name="Layer 8">
    <path class="cls-3" d="M1086.4,462.84c0,9.68-.3,19.3-.88,28.82-15.59,17.21-38.1,28.03-63.15,28.03s-48.97-11.5-64.58-29.66c.72-8.98,1.09-18.05,1.09-27.2,0-25.48-2.84-50.3-8.24-74.16-33.75-149.51-167.38-261.16-327.09-261.16s-289.89,108.78-325.73,255.38h-.02c-2.91,11.91-5.19,24.07-6.78,36.45-1.86,14.24-2.81,28.76-2.81,43.5,0,185.19,150.14,335.33,335.33,335.33v127.52h-1.48c-.85,0-1.69-.02-2.54-.02-84.1-.71-162.85-23.84-230.56-63.74-133.3-78.53-223.8-221.92-228.11-386.79-.11-4.08-.16-8.19-.16-12.3,0-6.2.13-12.36.37-18.5C170.8,197.29,374.13,0,623.56,0c223.55,0,410.07,158.47,453.35,369.21,6.23,30.23,9.49,61.56,9.49,93.64Z"/>
  </g>
  <g id="Layer_7" data-name="Layer 7">
    <circle class="cls-2" cx="1009.85" cy="602.61" r="63.21"/>
  </g>
  <g id="Layer_4" data-name="Layer 4">
    <path class="cls-1" d="M234.31,1292.39c3.44,75.78,29.82,149.44,77.47,208.33,69.07,85.87,177.03,140.57,287.01,144.03,108.68,2.44,216.05-45.85,290.13-124.68,70.88-74.36,109.02-177.69,95.86-280.06-21.57-184.51-187.63-330.3-369.68-347.77-16.74-1.85-28.82-16.92-26.97-33.66,1.93-17.28,17.21-28.52,33.95-27.16,0,0-2.71,60.89-2.71,60.89-21.11-1.93-42.12-5.15-62.88-9.64-104-22.5-200.05-80.24-267.63-162.58-68.09-82.05-107.05-189.78-99.33-296.9C205.16,196.11,426.61,14.94,652.16,43.64c176.37,20.04,326.04,158.88,360.81,332.45,8.27,39.32,10.8,79.74,8.07,119.71-.4-19.91-1.92-39.78-4.76-59.47-28.88-218.49-231.5-386.75-452.67-352.81-185.48,28.5-340.91,207.53-317.41,398.22,20.54,188.51,192.74,336.29,378.59,349.8,40.81,5.57,34.87,63.26-6.31,60.88,0,0,3.38-60.81,3.38-60.81,121.4,13.08,237.52,73.06,316.16,166.9,108.31,125.37,139.95,310.57,58.53,458.27-76.27,142.52-237.81,236.07-399.58,225.52-200.3-15.67-374.37-183.37-362.67-389.91h0Z"/>
  </g>
  <g id="Layer_3" data-name="Layer 3">
    <circle class="cls-1" cx="999.4" cy="620.39" r="34.84"/>
  </g>
</svg>